<svg width="737.61" height="734.73" data-name="Layer 1" version="1.1" viewBox="0 0 737.61 734.73" xmlns="http://www.w3.org/2000/svg">
 <defs>
  <linearGradient id="530ae87c-3bb5-497b-99f4-8a54bdcef0e4" x1="600" x2="600" y1="817.36" y2="82.64" gradientUnits="userSpaceOnUse">
   <stop stop-color="gray" stop-opacity=".25" offset="0"/>
   <stop stop-color="gray" stop-opacity=".12" offset=".54"/>
   <stop stop-color="gray" stop-opacity=".1" offset="1"/>
  </linearGradient>
 </defs>
 <title>mail</title>
 <path transform="translate(-231.2 -82.64)" d="M968.8,384.4c.06-27.46-5.63-34.67-18-45.11L617.08,88.13A27.22,27.22,0,0,0,584.4,88L256.58,332.11c-12.44,10.38-24.09,22.48-24.15,49.94h-.36l-.84,376h0l0,16.74a41,41,0,0,0,40.92,41.1l16.16,0h0l310.85.69,327,.73a41,41,0,0,0,41.1-40.92l.87-392.05Z" fill="url(#530ae87c-3bb5-497b-99f4-8a54bdcef0e4)"/>
 <path transform="translate(-229.87 -83.97) rotate(.13)" d="m237.76 384.59h723v350a71.78 71.78 0 0 1-71.76 71.77h-580.77a70.47 70.47 0 0 1-70.47-70.47v-351.3z" fill="#f99947"/>
 <path transform="translate(-231.2 -82.64)" d="M238.23,383.78l-.81,365.62a56.16,56.16,0,0,0,56,56.28L904.18,807" fill="#f5f5f5"/>
 <path transform="translate(-231.2 -82.64)" d="M961.27,385.39,960.46,751a56.16,56.16,0,0,1-56.28,56l-610.73-1.36" fill="#fff"/>
 <path transform="translate(-231.2 -82.64)" d="M584.33,97.91l-322,237.32c-12.22,10.09-23.66,21.86-23.72,48.56L962,386.08c.06-26.7-5.53-33.71-17.7-43.86L616.43,98A27,27,0,0,0,584.33,97.91Z" fill="#f99947"/>
 <path transform="translate(-231.2 -82.64)" d="M584.33,97.91l-322,237.32c-12.22,10.09-23.66,21.86-23.72,48.56L962,386.08c.06-26.7-5.53-33.71-17.7-43.86L616.43,98A27,27,0,0,0,584.33,97.91Z" opacity=".3"/>
 <g transform="matrix(.81749 0 0 .81749 66.663 55.079)" stroke-width="1.5471">
  <path d="m628.51 49.148-10.617-10.617a33.022 33.022 0 0 0-46.7 0l-205.94 205.94-205.94-205.94a33.022 33.022 0 0 0-46.7 0l-10.617 10.617a33.022 33.022 0 0 0 0 46.7l205.94 205.94-205.94 205.94a33.022 33.022 0 0 0 0 46.7l10.617 10.617a33.022 33.022 0 0 0 46.7 0l205.94-205.94 205.94 205.94a33.022 33.022 0 0 0 46.7 0l10.617-10.617a33.022 33.022 0 0 0 0-46.7l-205.94-205.94 205.94-205.94a33.022 33.022 0 0 0 0-46.7z" fill="#ff6584"/>
  <path d="m99.157 55.843a33.022 33.022 0 0 1 46.7 0l205.94 205.94 205.94-205.94a33.022 33.022 0 0 1 46.7 0l10.617 10.617a33.02 33.02 0 0 1 7.3493 35.504l6.1154-6.1154a33.022 33.022 0 0 0 0-46.7l-10.617-10.617a33.022 33.022 0 0 0-46.7 0l-205.94 205.94-205.94-205.94a33.022 33.022 0 0 0-46.7 0l-10.617 10.617a32.89 32.89 0 0 0-7.3491 11.196z" opacity=".1"/>
  <path d="m424.5 303.71-15.388 15.388 205.94 205.94a33.02 33.02 0 0 1 7.3493 35.504l6.1154-6.1156a33.022 33.022 0 0 0 0-46.7z" opacity=".1"/>
 </g>
</svg>
