<svg width="1100.5" height="691.71" data-name="Layer 1" version="1.1" viewBox="0 0 1100.5 691.71" xmlns="http://www.w3.org/2000/svg"><title>two_factor_authentication</title><path transform="translate(-49.75 -104.15)" d="m1150.3 388.24h-1.8586v-50.915a29.468 29.468 0 0 0-29.469-29.469h-107.87a29.468 29.468 0 0 0-29.469 29.469v279.33a29.469 29.469 0 0 0 29.469 29.469h107.87a29.469 29.469 0 0 0 29.469-29.469v-192.17h1.8586z" fill="#6c757d"/><path transform="translate(-49.75 -104.15)" d="m1142.1 339.05v278.92a22.011 22.011 0 0 1-22.01 22.01h-108.39a22.002 22.002 0 0 1-22-22.01v-278.92a22 22 0 0 1 22-22h13.15a10.461 10.461 0 0 0 9.68 14.4h61.8a10.44 10.44 0 0 0 9.6799-14.4h14.08a22.009 22.009 0 0 1 22.01 22z" fill="#d0cde1"/><rect x="945.85" y="355.71" width="126" height="34" fill="#f99947"/><g fill="#3f3d56"><path transform="translate(-49.75 -104.15)" d="m1126.6 487.85h-122a3.0033 3.0033 0 0 1-3-3v-30a3.0033 3.0033 0 0 1 3-3h122a3.0033 3.0033 0 0 1 3 3v30a3.0033 3.0033 0 0 1-3 3zm-122-34a1.001 1.001 0 0 0-1 1v30a1.0007 1.0007 0 0 0 1 1h122a1.0007 1.0007 0 0 0 1-1v-30a1.001 1.001 0 0 0-1-1z"/><rect x="959.85" y="374.71" width="16" height="2"/><rect x="981.85" y="374.71" width="16" height="2"/><rect x="1003.9" y="374.71" width="16" height="2"/><rect x="1025.9" y="374.71" width="16" height="2"/><rect x="1047.9" y="374.71" width="16" height="2"/></g><path transform="translate(-49.75 -104.15)" d="m1142.1 589.61v28.36a22.011 22.011 0 0 1-22.01 22.01h-108.39a22.002 22.002 0 0 1-22-22.01v-130.46z" opacity=".1"/><rect x="99.851" y="459.71" width="473" height="232" fill="#d0cde1"/><path transform="translate(-49.75 -104.15)" d="m502.35 795.85h-350.75a2.0059 2.0059 0 0 1-2-2v-228a2.0059 2.0059 0 0 1 2-2h4.44z" opacity=".1"/><rect x="318.85" y="490.71" width="733" height="2" fill="#6c757d"/><path transform="translate(-49.75 -104.15)" d="m600.34 108.46h-209.49v-4.3178h-94.991v4.3178h-210.35a14.17 14.17 0 0 0-14.17 14.17v286.86a14.17 14.17 0 0 0 14.17 14.17h514.83a14.17 14.17 0 0 0 14.17-14.17v-286.86a14.17 14.17 0 0 0-14.17-14.17z" fill="#6c757d"/><rect x="40.591" y="29.357" width="505.17" height="284.98" fill="#d0cde1"/><circle cx="292.74" cy="16.408" r="5.1813" fill="#f99947"/><path transform="translate(-49.75 -104.15)" d="m240.6 239.85h-12a3.0033 3.0033 0 0 1-3-3v-12a3.0033 3.0033 0 0 1 3-3h12a3.0033 3.0033 0 0 1 3 3v12a3.0033 3.0033 0 0 1-3 3zm-12-16a1.0013 1.0013 0 0 0-1 1v12a1.0013 1.0013 0 0 0 1 1h12a1.0013 1.0013 0 0 0 1-1v-12a1.0013 1.0013 0 0 0-1-1z" fill="#3f3d56"/><rect x="176.85" y="133.71" width="228" height="2" fill="#3f3d56"/><rect x="345.85" y="188.71" width="53" height="16" fill="#f99947"/><path transform="translate(-49.75 -104.15)" d="m452.6 304.85h-49a3.0033 3.0033 0 0 1-3-3v-12a3.0033 3.0033 0 0 1 3-3h49a3.0033 3.0033 0 0 1 3 3v12a3.0033 3.0033 0 0 1-3 3zm-49-16a1.0013 1.0013 0 0 0-1 1v12a1.0013 1.0013 0 0 0 1 1h49a1.0013 1.0013 0 0 0 1-1v-12a1.0013 1.0013 0 0 0-1-1z" fill="#3f3d56"/><rect x="703.85" y="206.71" width="100" height="70" fill="#f99947"/><g fill="#6c757d"><path transform="translate(-49.75 -104.15)" d="m863.6 375.35h-96a4.0043 4.0043 0 0 1-4-4v-66a4.0043 4.0043 0 0 1 4-4h96a4.0043 4.0043 0 0 1 4 4v66a4.0043 4.0043 0 0 1-4 4zm-96-70v66h96.003l-0.00293-66z"/><path transform="translate(-49.75 -104.15)" d="m852.6 302.85h-4a33 33 0 1 0-66 0h-4a37 37 0 1 1 74 0z"/><path transform="translate(-49.75 -104.15)" d="m825.6 330.35a10 10 0 1 0-15.294 8.4726v10.733a5.2941 5.2941 0 0 0 5.2941 5.2941 5.2941 5.2941 0 0 0 5.2941-5.2941v-10.733a9.9833 9.9833 0 0 0 4.7059-8.4726z"/></g><g fill="#3f3d56"><rect x="284.35" y="562.71" width="16" height="2"/><rect x="306.35" y="562.71" width="16" height="2"/><rect x="328.35" y="562.71" width="16" height="2"/><rect x="350.35" y="562.71" width="16" height="2"/><rect x="372.35" y="562.71" width="16" height="2"/></g><g fill="#6c757d"><path transform="translate(-49.75 -104.15)" d="m643.6 778.85h-469a4.0043 4.0043 0 0 1-4-4v-228a4.0043 4.0043 0 0 1 4-4h469a4.004 4.004 0 0 1 4 4v228a4.004 4.004 0 0 1-4 4zm-469-232v228h469l-0.00293-228z"/><circle cx="145.85" cy="470.71" r="6"/><circle cx="166.85" cy="470.71" r="6"/><circle cx="187.85" cy="470.71" r="6"/></g><path transform="translate(-49.75 -104.15)" d="m453.6 680.85h-135a3.0033 3.0033 0 0 1-3-3v-34a3.0033 3.0033 0 0 1 3-3h135a3.0033 3.0033 0 0 1 3 3v34a3.0033 3.0033 0 0 1-3 3zm-135-38a1.001 1.001 0 0 0-1 1v34a1.001 1.001 0 0 0 1 1h135a1.001 1.001 0 0 0 1-1v-34a1.001 1.001 0 0 0-1-1z" fill="#3f3d56"/><circle cx="437.85" cy="559.71" r="18" fill="#f99947"/><path transform="translate(-49.75 -104.15)" d="m493.6 679.85a19 19 0 1 1 19-19 19.022 19.022 0 0 1-19 19zm0-36a17 17 0 1 0 17 17 17.019 17.019 0 0 0-17-17z" fill="#3f3d56"/><polygon points="444.12 563.8 434.44 554.12 437.26 551.29 443.58 557.61 461.22 532.56 464.49 534.86" fill="#3f3d56"/><polygon points="433.76 314.34 40.591 314.34 40.591 50.947" opacity=".1"/><path transform="translate(-49.75 -104.15)" d="M628.69739,413.2984H579.39527v-3.55218a.7043.7043,0,0,0-.70431-.70432H561.78737a.70429.70429,0,0,0-.70431.70432v3.55218H550.51832v-3.55218a.7043.7043,0,0,0-.70432-.70432H532.91042a.7043.7043,0,0,0-.70432.70432v3.55218H521.64136v-3.55218a.70429.70429,0,0,0-.70431-.70432H504.03347a.7043.7043,0,0,0-.70432.70432v3.55218H492.76441v-3.55218a.7043.7043,0,0,0-.70432-.70432H475.15651a.70429.70429,0,0,0-.70431.70432v3.55218H463.88746v-3.55218a.7043.7043,0,0,0-.70432-.70432H446.27956a.7043.7043,0,0,0-.70432.70432v3.55218H435.0105v-3.55218a.70429.70429,0,0,0-.70431-.70432H417.4026a.7043.7043,0,0,0-.70431.70432v3.55218H406.13355v-3.55218a.7043.7043,0,0,0-.70432-.70432H273.01784a.7043.7043,0,0,0-.70432.70432v3.55218H261.74878v-3.55218a.7043.7043,0,0,0-.70432-.70432H244.14088a.70429.70429,0,0,0-.70431.70432v3.55218H232.87183v-3.55218a.7043.7043,0,0,0-.70432-.70432H215.26393a.7043.7043,0,0,0-.70432.70432v3.55218H203.99487v-3.55218a.70429.70429,0,0,0-.70431-.70432H186.387a.7043.7043,0,0,0-.70431.70432v3.55218H175.11792v-3.55218a.7043.7043,0,0,0-.70432-.70432H157.51a.7043.7043,0,0,0-.70432.70432v3.55218H146.241v-3.55218a.7043.7043,0,0,0-.70432-.70432H128.63307a.7043.7043,0,0,0-.70432.70432v3.55218H117.364v-3.55218a.7043.7043,0,0,0-.70431-.70432H99.75611a.70429.70429,0,0,0-.70431.70432v3.55218H66.65326A16.90359,16.90359,0,0,0,49.74968,430.202v7.6434a16.90358,16.90358,0,0,0,16.90358,16.90354H628.69739A16.90358,16.90358,0,0,0,645.601,437.84539V430.202A16.90359,16.90359,0,0,0,628.69739,413.2984Z" fill="#6c757d"/><g fill="#3f3d56"><path transform="translate(-49.75 -104.15)" d="m474.6 321.85h-264a3.0033 3.0033 0 0 1-3-3v-110a3.0033 3.0033 0 0 1 3-3h264a3.0033 3.0033 0 0 1 3 3v110a3.0033 3.0033 0 0 1-3 3zm-264-114a1.0013 1.0013 0 0 0-1 1v110a1.0013 1.0013 0 0 0 1 1h264a1.0013 1.0013 0 0 0 1-1v-110a1.0013 1.0013 0 0 0-1-1z"/><path transform="translate(-49.75 -104.15)" d="m240.6 269.85h-12a3.0033 3.0033 0 0 1-3-3v-12a3.0033 3.0033 0 0 1 3-3h12a3.0033 3.0033 0 0 1 3 3v12a3.0033 3.0033 0 0 1-3 3zm-12-16a1.0013 1.0013 0 0 0-1 1v12a1.0013 1.0013 0 0 0 1 1h12a1.0013 1.0013 0 0 0 1-1v-12a1.0013 1.0013 0 0 0-1-1z"/><rect x="176.85" y="163.71" width="228" height="2"/></g><g fill="#6c757d"><rect x="264.85" y="269.71" width="733" height="2"/><circle cx="264.85" cy="269.71" r="14"/><circle cx="997.85" cy="271.71" r="11"/><circle cx="1051.9" cy="492.71" r="11"/><circle cx="321.85" cy="492.71" r="11"/></g></svg>
